<mxfile host="app.diagrams.net" modified="2023-10-27T07:41:30.085Z" agent="Mozilla/5.0 (X11; Linux x86_64) AppleWebKit/537.36 (KHTML, like Gecko) Chrome/113.0.0.0 Safari/537.36 OPR/99.0.0.0" version="22.0.8" etag="NL5W-21J45mMd7bJomeu" type="github">
  <diagram name="Page-1" id="3AgzISWQMtsb35PRqc2g">
    <mxGraphModel>
      <root>
        <mxCell id="0" />
        <mxCell id="1" parent="0" />
      </root>
    </mxGraphModel>
  </diagram>
</mxfile>
